<?xml version="1.0" encoding="UTF-8" standalone="no"?>
<svg width="19px" height="19px" viewBox="0 0 19 19" version="1.1" xmlns="http://www.w3.org/2000/svg" xmlns:xlink="http://www.w3.org/1999/xlink" xmlns:sketch="http://www.bohemiancoding.com/sketch/ns">
    <!-- Generator: Sketch 3.3.2 (12043) - http://www.bohemiancoding.com/sketch -->
    <title>Shape</title>
    <desc>Created with Sketch.</desc>
    <defs></defs>
    <g id="Page-1" stroke="none" stroke-width="1" fill="none" fill-rule="evenodd" sketch:type="MSPage">
        <g id="Socials" sketch:type="MSLayerGroup" fill="#95A9C0">
            <g id="Icons" transform="translate(0.000000, 0.112131)" sketch:type="MSShapeGroup">
                <path d="M0.203125,9.35348913 C0.203125,8.20007579 0.437240428,7.0971986 0.905471276,6.04485756 C1.37370212,4.99251652 2.00472847,4.08435216 2.79855031,3.32036445 C3.59237215,2.55637674 4.53968689,1.94845657 5.64049451,1.49660392 C6.74130214,1.04475127 7.89637493,0.818824949 9.10571289,0.818824949 C10.3212526,0.818824949 11.4825271,1.04475127 12.5895365,1.49660392 C13.6965458,1.94845657 14.6500623,2.55637674 15.4500859,3.32036445 C16.2501094,4.08435216 16.8857871,4.99251652 17.3571188,6.04485756 C17.8284505,7.0971986 18.0641164,8.20007579 18.0641164,9.35348913 C18.0641164,10.5187933 17.8284505,11.6305887 17.3571188,12.6888751 C16.8857871,13.7471616 16.2501094,14.659785 15.4500859,15.4267455 C14.6500623,16.1937059 13.6965458,16.8045988 12.5895365,17.2594241 C11.4825271,17.7142495 10.3212526,17.9416622 9.10571289,17.9416622 C7.8901732,17.9416622 6.73354997,17.7142495 5.63584321,17.2594241 C4.53813645,16.8045988 3.59237215,16.1937059 2.79855031,15.4267455 C2.00472847,14.659785 1.37370212,13.7471616 0.905471276,12.6888751 C0.437240428,11.6305887 0.203125,10.5187933 0.203125,9.35348913 L0.203125,9.35348913 Z M1.69154095,9.71913305 C1.71634788,10.5574386 1.90084944,11.3600716 2.24504563,12.127032 C2.58924182,12.8939925 3.06522484,13.5836623 3.67299468,14.1960415 C4.40479919,13.1258642 5.30250006,12.2013499 6.36609729,11.4224986 C7.42969451,10.6436474 8.60027164,10.0401862 9.87782866,9.61211532 C9.73518881,9.34457099 9.58634721,9.01162693 9.43130388,8.61328315 C7.1490661,9.386189 4.91644217,9.77264192 2.73343211,9.77264192 C2.62800265,9.77264192 2.46055586,9.76372377 2.23109173,9.74588748 C2.0016276,9.7280512 1.82177734,9.71913305 1.69154095,9.71913305 L1.69154095,9.71913305 Z M1.74735655,8.29222995 L2.73343211,8.29222995 C4.83581964,8.29222995 6.84828203,7.95928589 8.7708193,7.29339778 C8.00180439,5.90216725 6.97851843,4.48120958 5.70096141,3.03052476 C4.65286851,3.56561342 3.77997458,4.2954149 3.0822796,5.21992921 C2.38458462,6.14444351 1.93961028,7.16854376 1.74735655,8.29222995 L1.74735655,8.29222995 Z M4.76139884,15.1948737 C6.14438533,16.0807427 7.59249001,16.5236772 9.10571289,16.5236772 C9.94294686,16.5236772 10.730567,16.3958505 11.4685732,16.140197 C11.3073282,14.3922407 10.9414259,12.6740116 10.3708664,10.9855096 C9.22354582,11.3481808 8.17390249,11.8892149 7.22193646,12.6086118 C6.26997043,13.3280088 5.44979122,14.1900961 4.76139884,15.1948737 L4.76139884,15.1948737 Z M7.18937736,2.50435424 C8.34289972,3.87774848 9.33207615,5.29870615 10.1569067,6.76722726 C11.6577261,6.12512086 13.0283091,5.28384258 14.2686557,4.2433924 C13.5802633,3.601286 12.7941937,3.10781535 11.9104467,2.76298043 C11.0266997,2.41814551 10.0917885,2.24572805 9.10571289,2.24572805 C8.53515345,2.24572805 7.89637493,2.33193678 7.18937736,2.50435424 L7.18937736,2.50435424 Z M10.8173912,8.09603077 C10.8670051,8.22088479 10.9460772,8.41411126 11.0546075,8.67571016 C11.1631379,8.93730906 11.2453108,9.12756281 11.3011264,9.2464714 C12.2747985,9.06810851 13.0841247,8.97892707 13.7291049,8.97892707 C14.4733129,8.97892707 15.4221781,9.10378109 16.5757004,9.35348913 C16.5757004,7.97414946 16.1353774,6.63940052 15.2547313,5.3492423 C13.8469379,6.47887393 12.3678245,7.39447008 10.8173912,8.09603077 L10.8173912,8.09603077 Z M11.8034668,10.6198656 C12.2934037,12.0527142 12.659306,13.6847346 12.9011736,15.5159269 C13.8004249,15.0165108 14.5570363,14.3535954 15.1710079,13.5271807 C15.7849795,12.700766 16.2004956,11.7821971 16.4175562,10.7714741 C15.5059015,10.5633841 14.609751,10.459339 13.7291049,10.459339 C13.053116,10.459339 12.4112366,10.5128479 11.8034668,10.6198656 L11.8034668,10.6198656 Z" id="Shape"></path>
            </g>
        </g>
    </g>
</svg>