<?xml version="1.0" encoding="UTF-8" standalone="no"?>
<svg width="20px" height="19px" viewBox="0 0 20 19" version="1.1" xmlns="http://www.w3.org/2000/svg" xmlns:xlink="http://www.w3.org/1999/xlink" xmlns:sketch="http://www.bohemiancoding.com/sketch/ns">
    <!-- Generator: Sketch 3.3.2 (12043) - http://www.bohemiancoding.com/sketch -->
    <title>Shape</title>
    <desc>Created with Sketch.</desc>
    <defs></defs>
    <g id="Page-1" stroke="none" stroke-width="1" fill="none" fill-rule="evenodd" sketch:type="MSPage">
        <g id="Socials" sketch:type="MSLayerGroup" transform="translate(-52.000000, 0.000000)" fill="#95A9C0">
            <g id="Icons" transform="translate(0.000000, 0.112131)" sketch:type="MSShapeGroup">
                <path d="M52.6869612,15.0110227 L52.6869612,3.48603613 C52.6869612,2.53202336 53.0392674,1.71727083 53.7438796,1.04177856 C54.4484919,0.366286292 55.2983679,0.0285401537 56.2935075,0.0285401537 L68.3153287,0.0285401537 C69.3104683,0.0285401537 70.1603443,0.366286292 70.8649566,1.04177856 C71.5695688,1.71727083 71.921875,2.53202336 71.921875,3.48603613 L71.921875,15.0110227 C71.921875,15.9650355 71.5695688,16.779788 70.8649566,17.4552803 C70.1603443,18.1307726 69.3104683,18.4685187 68.3153287,18.4685187 L56.2935075,18.4685187 C55.2983679,18.4685187 54.4484919,18.1307726 53.7438796,17.4552803 C53.0392674,16.779788 52.6869612,15.9650355 52.6869612,15.0110227 L52.6869612,15.0110227 Z M55.8927802,15.0110227 C55.8927802,15.1134671 55.9328529,15.2031058 56.0129984,15.2799391 C56.0931439,15.3567723 56.1866469,15.395189 56.2935075,15.395189 L58.6978718,15.395189 C58.8047324,15.395189 58.8982355,15.358373 58.9783809,15.2847412 C59.0585264,15.2111093 59.0985991,15.1198698 59.0985991,15.0110227 L59.0985991,7.32769833 C59.0985991,7.225254 59.0585264,7.13561522 58.9783809,7.05878198 C58.8982355,6.98194873 58.8047324,6.94353211 58.6978718,6.94353211 L56.2935075,6.94353211 C56.1866469,6.94353211 56.0931439,6.98194873 56.0129984,7.05878198 C55.9328529,7.13561522 55.8927802,7.225254 55.8927802,7.32769833 L55.8927802,15.0110227 L55.8927802,15.0110227 Z M55.8927802,4.59051402 C55.8927802,5.00029132 56.0430529,5.350843 56.3435985,5.64216904 C56.644144,5.93349509 57.008138,6.07915812 57.4355805,6.07915812 C57.8830595,6.07915812 58.2503929,5.9318944 58.5375808,5.63736696 C58.8381263,5.3492423 58.9883991,5.00029132 58.9883991,4.59051402 C58.9883991,4.18073671 58.8364566,3.83018504 58.5325717,3.53885899 C58.2286868,3.24753294 57.8630231,3.10186991 57.4355805,3.10186991 C57.008138,3.10186991 56.644144,3.24753294 56.3435985,3.53885899 C56.0430529,3.83018504 55.8927802,4.18073671 55.8927802,4.59051402 L55.8927802,4.59051402 Z M59.9000539,15.0110227 C59.9000539,15.1134671 59.9635024,15.2031058 60.0903994,15.2799391 C60.2172964,15.3567723 60.3441934,15.395189 60.4710904,15.395189 L62.7552364,15.395189 C62.8487394,15.395189 62.9305546,15.3567723 63.0006819,15.2799391 C63.0708092,15.2031058 63.1058728,15.1134671 63.1058728,15.0110227 L63.1058728,10.8236109 C63.1058728,9.70312612 63.5834063,9.14288372 64.5384732,9.14288372 C64.9325218,9.14288372 65.1929946,9.22611974 65.3198916,9.39259176 C65.4467886,9.55906379 65.5102371,9.859994 65.5102371,10.2953824 L65.5102371,15.0110227 C65.5102371,15.1134671 65.560328,15.2031058 65.6605098,15.2799391 C65.7606917,15.3567723 65.8708917,15.395189 65.9911099,15.395189 L68.3153287,15.395189 C68.4221893,15.395189 68.5156923,15.358373 68.5958378,15.2847412 C68.6759833,15.2111093 68.716056,15.1198698 68.716056,15.0110227 L68.716056,9.7959663 C68.716056,8.79073135 68.4138408,8.02079822 67.8094104,7.4861669 C67.2049799,6.95153557 66.3551039,6.68421991 65.2597825,6.68421991 C64.5050793,6.68421991 63.8472185,6.86669887 63.2862002,7.23165678 C63.1726607,7.29568448 63.1125516,7.34370526 63.1058728,7.37571911 C63.1058728,7.08759444 62.9622789,6.94353211 62.6750909,6.94353211 L60.4710904,6.94353211 C60.3375146,6.94353211 60.2089479,6.97554596 60.0853903,7.03957367 C59.9618327,7.10360137 59.9000539,7.183636 59.9000539,7.27967755 L59.9000539,15.0110227 L59.9000539,15.0110227 Z" id="Shape"></path>
            </g>
        </g>
    </g>
</svg>