<?xml version="1.0" encoding="UTF-8" standalone="no"?>
<svg width="253px" height="90px" viewBox="0 0 253 90" version="1.1" xmlns="http://www.w3.org/2000/svg" xmlns:xlink="http://www.w3.org/1999/xlink" xmlns:sketch="http://www.bohemiancoding.com/sketch/ns">
    <!-- Generator: Sketch 3.3.2 (12043) - http://www.bohemiancoding.com/sketch -->
    <title>Finpal Logo</title>
    <desc>Created with Sketch.</desc>
    <defs></defs>
    <g id="Page-1" stroke="none" stroke-width="1" fill="none" fill-rule="evenodd" sketch:type="MSPage">
        <g id="Finpal-Logo" sketch:type="MSLayerGroup">
            <path d="M252.664,0 L252.664,69.791 L239,69.791 L239,11.744 L252.664,0" id="Fill-79" fill="#4D2966" sketch:type="MSShapeGroup"></path>
            <path d="M61.572,9.407 L61.573,9.406 L55.668,0.683 L55.665,0.683 C55.401,0.273 54.942,0 54.418,0 C53.893,0 53.434,0.273 53.17,0.683 L53.167,0.683 L47.278,9.383 L47.282,9.384 C47.107,9.627 47,9.925 47,10.249 C47,11.069 47.664,11.734 48.484,11.734 L60.35,11.734 C61.171,11.734 61.836,11.069 61.836,10.249 C61.836,9.936 61.738,9.647 61.572,9.407" id="Fill-80" fill="#5BB9A1" sketch:type="MSShapeGroup"></path>
            <path d="M60.664,16 L60.664,70.14 L47,70.14 L47,16.063 L60.664,16" id="Fill-81" fill="#4D2966" sketch:type="MSShapeGroup"></path>
            <path d="M68,70.14 L68,16 L78.569,16 L80.272,22.91 C86.837,18.304 93.437,16 100.07,16 C112.548,16 118.787,22.721 118.787,36.161 L118.787,70.14 L105.124,70.14 L105.124,36.006 C105.124,30.025 102.15,27.035 96.204,27.035 C91.426,27.035 86.579,29.321 81.663,33.892 L81.663,70.14 L68,70.14" id="Fill-82" fill="#4D2966" sketch:type="MSShapeGroup"></path>
            <path d="M139.664,56.012 C143.411,57.868 147.587,58.797 152.193,58.797 C160.683,58.797 164.929,53.072 164.929,41.626 C164.929,31.898 160.083,27.035 150.388,27.035 C145.818,27.035 142.241,27.275 139.664,27.756 L139.664,56.012 L139.664,56.012 Z M126,18.218 C133.185,16.74 141.124,16 149.821,16 C168.9,16 178.439,24.577 178.439,41.729 C178.439,60.67 169.706,70.14 152.245,70.14 C147.913,70.14 143.72,69.28 139.664,67.561 L139.664,89.733 L126,89.733 L126,18.218 L126,18.218 Z" id="Fill-83" fill="#4D2966" sketch:type="MSShapeGroup"></path>
            <path d="M13.561,26.377 L13.561,11.756 L38.634,11.756 L46.573,0 L0,0 L0,69.791 L13.406,69.791 L13.406,38.596 L30.38,38.596 L38.684,26.377 L13.561,26.377" id="Fill-84" fill="#4D2966" sketch:type="MSShapeGroup"></path>
            <path d="M218.092,55.084 C214.207,57.903 209.48,59.312 203.912,59.312 C198.414,59.312 195.664,57.249 195.664,53.124 C195.664,48.999 198.945,46.937 205.51,46.937 C210.461,46.937 214.654,47.281 218.092,47.968 L218.092,55.084 L218.092,55.084 Z M204.016,16 C198.109,16 192.234,16.859 186.394,18.575 L192.703,27.89 C196.459,27.185 200.23,26.828 204.016,26.828 C213.4,26.828 218.092,29.252 218.092,34.099 L218.092,37.656 C214.414,36.969 210.221,36.625 205.51,36.625 C189.836,36.625 182,42.176 182,53.279 C182,64.52 189.303,70.14 203.912,70.14 C209.24,70.14 214.26,68.867 218.969,66.324 L224.848,70.14 L231.754,70.14 L231.754,33.841 C231.754,21.947 222.51,16 204.016,16 L204.016,16 Z" id="Fill-85" fill="#4D2966" sketch:type="MSShapeGroup"></path>
        </g>
    </g>
</svg>