<?xml version="1.0" encoding="UTF-8" standalone="no"?>
<svg width="20px" height="15px" viewBox="0 0 20 15" version="1.1" xmlns="http://www.w3.org/2000/svg" xmlns:xlink="http://www.w3.org/1999/xlink" xmlns:sketch="http://www.bohemiancoding.com/sketch/ns">
    <!-- Generator: Sketch 3.3.2 (12043) - http://www.bohemiancoding.com/sketch -->
    <title>Shape</title>
    <desc>Created with Sketch.</desc>
    <defs></defs>
    <g id="Page-1" stroke="none" stroke-width="1" fill="none" fill-rule="evenodd" sketch:type="MSPage">
        <g id="Socials" sketch:type="MSLayerGroup" transform="translate(-84.000000, -2.000000)" fill="#95A9C0">
            <g id="Icons" transform="translate(0.000000, 0.112131)" sketch:type="MSShapeGroup">
                <path d="M84.8367457,14.7061016 C84.8367457,14.800605 84.886121,14.885658 84.9848717,14.9612608 C85.1494562,15.0683646 85.4424165,15.2258703 85.8637527,15.4337778 C87.470097,16.2276065 89.1554418,16.6245209 90.9197872,16.6245209 C93.1186355,16.6245209 95.1166908,16.0827013 96.9139531,14.9990621 C97.7697922,14.4824435 98.5301724,13.860296 99.1950936,13.1326197 C99.8600148,12.4049434 100.388331,11.645766 100.780042,10.8550875 C101.171753,10.0644089 101.464713,9.27215529 101.658923,8.47832661 C101.853133,7.68449794 101.943654,6.91272006 101.930487,6.16299298 L101.930487,5.83223103 C102.700743,5.30301192 103.303122,4.69819007 103.737625,4.0177655 C103.777125,3.94216276 103.796875,3.88546072 103.796875,3.84765935 C103.796875,3.76575639 103.763958,3.69330378 103.698124,3.6303015 C103.632291,3.56729922 103.556582,3.53579809 103.470998,3.53579809 C103.424914,3.53579809 103.345914,3.560999 103.233996,3.61140082 C103.154996,3.63660173 103.057891,3.66810287 102.942682,3.70590423 C102.827473,3.7437056 102.728722,3.77678179 102.64643,3.80513282 C102.564137,3.83348384 102.509825,3.85080946 102.483491,3.85710969 C102.654659,3.6744031 102.83241,3.42711916 103.016745,3.1152579 C103.201079,2.80339663 103.293247,2.57501338 103.293247,2.43010815 C103.293247,2.34820519 103.26033,2.27732763 103.194496,2.21747547 C103.128662,2.15762331 103.049662,2.12769723 102.957494,2.12769723 C102.904827,2.12769723 102.85216,2.1434478 102.799493,2.17494893 C102.048988,2.55926282 101.347858,2.82072225 100.696104,2.95932726 C99.8995151,2.23480109 98.9482169,1.87253801 97.8422094,1.87253801 C96.7098683,1.87253801 95.7454034,2.25055166 94.9488147,3.00657897 C94.1522259,3.76260628 93.7539315,4.67613928 93.7539315,5.74717796 C93.7539315,5.93618479 93.7670983,6.09054036 93.7934318,6.21024469 C92.6808409,6.12204151 91.6077502,5.86688229 90.5741598,5.44476704 C89.5405694,5.02265179 88.6123131,4.45563131 87.7893908,3.7437056 C87.5984729,3.56729922 87.2298037,3.19873591 86.6833833,2.63801566 C86.6043827,2.56241293 86.5122155,2.52461156 86.4068814,2.52461156 C86.3278809,2.52461156 86.2455886,2.57501338 86.1600047,2.67581702 C85.9888369,2.9215259 85.8538776,3.22236176 85.755127,3.57832462 C85.6563763,3.93428748 85.6070009,4.28237505 85.6070009,4.62258734 C85.6070009,5.56132125 85.913128,6.38035083 86.5253822,7.07967609 L86.2390053,6.94737131 C86.0744208,6.87806881 85.9526283,6.84341756 85.8736278,6.84341756 C85.7617103,6.84341756 85.6678972,6.87491869 85.5921883,6.93792097 C85.5164795,7.00092325 85.4786251,7.0828262 85.4786251,7.18362985 C85.4786251,7.84515374 85.6563763,8.47202638 86.0118787,9.06424778 C86.3673811,9.65646917 86.8479677,10.1289862 87.4536385,10.481799 L87.3351377,10.4628983 C87.321971,10.4628983 87.3038667,10.4597482 87.2808249,10.453448 C87.257783,10.4471477 87.2396787,10.4424226 87.226512,10.4392724 C87.2133452,10.4361223 87.2034702,10.4345473 87.1968868,10.4345473 C87.1113029,10.4345473 87.0372399,10.4660484 86.9746978,10.5290507 C86.9121557,10.592053 86.8808846,10.6613555 86.8808846,10.7369582 C86.8808846,10.7432584 86.887468,10.7779097 86.9006348,10.8409119 C87.1244696,11.4961356 87.4964305,12.0521307 88.0165174,12.5088972 C88.5366043,12.9656637 89.1455667,13.2727998 89.8434048,13.4303055 C88.697897,14.1044298 87.4338884,14.441492 86.051379,14.441492 C85.9592117,14.441492 85.8110857,14.4320417 85.6070009,14.413141 C85.3304991,14.4005405 85.1790814,14.3942403 85.1527478,14.3942403 C85.0671639,14.3942403 84.9931009,14.4257414 84.9305588,14.4887437 C84.8680167,14.551746 84.8367457,14.6241986 84.8367457,14.7061016 L84.8367457,14.7061016 Z" id="Shape"></path>
            </g>
        </g>
    </g>
</svg>