<?xml version="1.0" encoding="UTF-8" standalone="no"?>
<svg width="10px" height="19px" viewBox="0 0 10 19" version="1.1" xmlns="http://www.w3.org/2000/svg" xmlns:xlink="http://www.w3.org/1999/xlink" xmlns:sketch="http://www.bohemiancoding.com/sketch/ns">
    <!-- Generator: Sketch 3.3.2 (12043) - http://www.bohemiancoding.com/sketch -->
    <title>Shape</title>
    <desc>Created with Sketch.</desc>
    <defs></defs>
    <g id="Page-1" stroke="none" stroke-width="1" fill="none" fill-rule="evenodd" sketch:type="MSPage">
        <g id="Socials" sketch:type="MSLayerGroup" transform="translate(-30.000000, 0.000000)" fill="#95A9C0">
            <g id="Icons" transform="translate(0.000000, 0.112131)" sketch:type="MSShapeGroup">
                <path d="M30.9789871,9.24852943 L32.9319196,9.24852943 L32.9319196,18.2050904 L36.8181573,18.2050904 L36.8181573,9.24852943 L39.4286099,9.24852943 L39.7720905,6.16038183 L36.8377848,6.16038183 L36.8377848,4.62097291 C36.8377848,4.38461922 36.8492341,4.20268907 36.8721329,4.07518247 C36.8950316,3.94767587 36.9473715,3.82327919 37.0291526,3.70199243 C37.1109336,3.58070567 37.2401478,3.49673791 37.416795,3.45008915 C37.5934421,3.4034404 37.8289717,3.38011602 38.1233836,3.38011602 L39.7524631,3.38011602 L39.7524631,0.291968419 L37.1518242,0.291968419 C35.647052,0.291968419 34.5675416,0.630949371 33.9132928,1.30891128 C33.259044,1.9868732 32.9319196,2.98515656 32.9319196,4.30376137 L32.9319196,6.16038183 L30.9789871,6.16038183 L30.9789871,9.24852943 L30.9789871,9.24852943 Z" id="Shape"></path>
            </g>
        </g>
    </g>
</svg>